<svg width="22" height="15" viewBox="0 0 22 15" fill="none" xmlns="http://www.w3.org/2000/svg">
<path d="M15.375 0.0151367H12.6959H12.2934H3.77084H0.46875V14.9931H3.67713V14.3481V10.1805V10.0537H7.90535H7.94394L12.0619 14.9931H15.375V13.8905C14.3387 12.6392 13.203 11.3051 12.1446 10.0592H15.3695V9.06695V7.00521C15.3695 6.99419 15.3695 6.98867 15.3695 6.97765V3.10224C15.3695 3.09121 15.3695 3.0857 15.3695 3.07467L15.375 0.0151367ZM12.1225 6.80676H3.67713V3.24557H3.76534H12.1225V6.80676Z" fill="#3461FF"/>
<path d="M21.5308 3.00672V0.00695801H18.2783V3.00672L18.986 9.26737H20.9165L21.5308 3.00672Z" fill="#3461FF"/>
<path d="M21.5308 14.9931V11.6611H18.2783V14.9931H21.5308Z" fill="#3461FF"/>
</svg>
