<svg width="128" height="16" viewBox="0 0 128 16" fill="none" xmlns="http://www.w3.org/2000/svg">
<path d="M15.375 0.510986H12.6959H12.2934H3.77084H0.46875V15.4889H3.67713V14.844V10.6764V10.5496H7.90535H7.94394L12.0619 15.4889H15.375V14.3864C14.3387 13.135 13.203 11.801 12.1446 10.5551H15.3695V9.5628V7.50106C15.3695 7.49004 15.3695 7.48452 15.3695 7.4735V3.59809C15.3695 3.58706 15.3695 3.58155 15.3695 3.57052L15.375 0.510986ZM12.1225 7.30261H3.67713V3.74142H3.76534H12.1225V7.30261Z" fill="#3461FF"/>
<path d="M25.5128 3.74978H27.4698H28.3408L31.3397 0.502808H17.5801V0.806005V3.74978H20.8326H25.5128Z" fill="#3461FF"/>
<path d="M20.8326 9.62626H26.2791L29.278 6.37378H27.4698H25.5128H20.8326H17.5801V9.62626V15.4973H28.2912L31.2901 12.2503H20.8326V9.62626Z" fill="#3461FF"/>
<path d="M36.7974 9.62629V0.502808H33.5449V9.62629V15.4973H44.2561L47.255 12.2503H36.7974V9.62629Z" fill="#3461FF"/>
<path d="M127.531 3.50257V0.502808H124.278V3.50257L124.986 9.76322H126.916L127.531 3.50257Z" fill="#3461FF"/>
<path d="M127.531 15.4889V12.1569H124.278V15.4889H127.531Z" fill="#3461FF"/>
<path d="M49.46 3.74941V3.58403L51.9407 0.502441H52.525H61.3012H64.3607H64.3663V4.1353V12.25V12.4153V15.4969H61.1138V3.74941H52.6683V12.25V15.4969H49.46V12.4153V12.25V3.74941Z" fill="#3461FF"/>
<path d="M52.7124 10.7285H61.7091V7.47601H57.6959H55.7389H52.7124H49.46V10.7285H52.7124Z" fill="#3461FF"/>
<path d="M66.5713 3.75248H72.3982V15.5H75.6231V3.75248H81.4666V0.5H68.9583L66.5713 3.75248Z" fill="#3461FF"/>
<path d="M86.9023 0.5H83.6719V15.5H86.9023V0.5Z" fill="#3461FF"/>
<path d="M92.1725 0.502563H89.1074V3.58415V3.74953V12.2501V12.4155V15.4971H92.1725H100.949H104.014V12.4155V12.2501V3.74953V3.58415V0.502563H100.949H92.1725ZM100.761 12.2501H92.3158V3.74953H100.761V12.2501Z" fill="#3461FF"/>
<path d="M117.873 10.5L109.532 0.5H106.219V15.5H109.427V5.46141L117.812 15.5H121.125V0.5H117.873V10.5Z" fill="#3461FF"/>
</svg>
